<?xml version="1.0" encoding="iso-8859-1"?>
<!-- Uploaded to: SVG Repo, www.svgrepo.com, Generator: SVG Repo Mixer Tools -->
<svg fill="#000000" height="800px" width="800px" version="1.1" id="Layer_1" xmlns="http://www.w3.org/2000/svg" xmlns:xlink="http://www.w3.org/1999/xlink" 
	 viewBox="0 0 512 512" xml:space="preserve">
<g>
	<g>
		<path d="M284.036,314.912c-9.497-11.489-22.814-19.008-37.496-21.171c-14.744-2.185-30.238,1.347-42.514,9.678
			c-12.271,8.324-21.005,20.789-24.591,35.101c-4.334,17.287-0.595,36.128,10.003,50.401l6.297,8.48l6.29-8.482
			c3.548-4.787,8.148-8.911,13.293-11.927c9.397-5.495,20.926-7.351,31.621-5.095c10.428,2.205,20.075,8.409,26.465,17.022
			l6.305,8.498L286,388.91c5.228-7.072,8.896-15.31,10.607-23.822C300.155,347.481,295.454,328.724,284.036,314.912z
			 M281.242,361.997c-0.625,3.103-1.602,6.159-2.9,9.087c-7.881-7.242-17.583-12.284-28.163-14.521
			c-14.462-3.055-30.054-0.538-42.777,6.904c-3.673,2.151-7.138,4.72-10.296,7.617c-3.919-8.957-4.868-19.175-2.467-28.751
			c2.61-10.418,9.239-19.872,18.188-25.942c7.304-4.957,16.157-7.61,25.027-7.61c2.139,0,4.28,0.154,6.398,0.467
			c10.685,1.575,20.783,7.279,27.702,15.652l0.001,0.001C280.393,335.106,283.864,348.973,281.242,361.997z"/>
	</g>
</g>
<g>
	<g>
		<path d="M195.918,0C122.458,0,62.694,59.764,62.694,133.224V336.98c0,96.506,78.515,175.02,175.02,175.02
			c46.741,0,90.694-18.204,123.761-51.261c33.055-33.066,51.26-77.018,51.26-123.76V133.224c0-13.459-1.997-26.694-5.943-39.428
			c20.607-15.713,34.781-38.03,40.16-63.433c1.563-7.356,2.355-14.935,2.355-22.527V0H195.918z M431.619,27.111
			c-4.95,23.38-18.621,43.701-38.496,57.222l-0.043,0.029c-15.318,10.432-33.271,15.948-51.921,15.948H148.135v66.351
			c0,9.065-3.534,17.592-9.954,24.012c-6.406,6.415-14.931,9.947-24.005,9.947h-7.837v50.437c0,33.177,12.411,64.857,34.948,89.208
			l10.424,11.262l3.012-15.048c7.879-39.368,42.782-67.941,82.991-67.941s75.113,28.574,82.992,67.941l3.012,15.048l10.424-11.262
			c22.536-24.351,34.948-56.032,34.948-89.208V200.62h-7.837c-18.726,0-33.959-15.234-33.959-33.992l-0.209-50.645h24.523v-0.516
			c14.592-1.398,28.64-5.718,41.443-12.745c2.659,9.906,4.01,20.126,4.01,30.502V336.98c0,42.557-16.574,82.573-46.668,112.678
			c-30.106,30.095-70.122,46.669-112.679,46.669c-87.864,0-159.347-71.483-159.347-159.347V133.224
			c0-64.817,52.734-117.551,117.551-117.551h237.385C432.98,19.529,432.417,23.355,431.619,27.111z M353.416,215.675v35.381
			c0,24.343-7.587,47.772-21.598,67.314c-14.341-38.733-51.738-65.506-94.104-65.506s-79.762,26.772-94.105,65.506
			c-14.011-19.543-21.598-42.971-21.598-67.314v-35.375c10.285-1.622,19.762-6.427,27.255-13.93
			c9.377-9.378,14.541-21.839,14.541-35.092v-50.677h147.604l0.208,50.678C311.62,191.364,329.759,211.908,353.416,215.675z"/>
	</g>
</g>
<g>
	<g>
		<path d="M222.943,464.133l-1.804,15.569c5.444,0.631,11.022,0.951,16.575,0.951V464.98
			C232.76,464.98,227.791,464.695,222.943,464.133z"/>
	</g>
</g>
<g>
	<g>
		<path d="M137.798,416.894c-18.372-22.921-28.084-50.555-28.084-79.915H94.041c0,32.491,11.196,64.353,31.527,89.718
			c20.015,24.972,48.068,42.765,78.992,50.097l3.616-15.251C180.635,455.012,155.641,439.156,137.798,416.894z"/>
	</g>
</g>
</svg>